<?xml version="1.0" encoding="UTF-8"?>
<!DOCTYPE svg PUBLIC "-//W3C//DTD SVG 1.1//EN" "http://www.w3.org/Graphics/SVG/1.1/DTD/svg11.dtd">
<svg xmlns="http://www.w3.org/2000/svg" version="1.1" viewBox="0 0 37 37" stroke="none">
	<rect width="100%" height="100%" fill="#f76d5e"/>
	<path d="M4,4h1v1h-1z M5,4h1v1h-1z M6,4h1v1h-1z M7,4h1v1h-1z M8,4h1v1h-1z M9,4h1v1h-1z M10,4h1v1h-1z M12,4h1v1h-1z M13,4h1v1h-1z M14,4h1v1h-1z M19,4h1v1h-1z M20,4h1v1h-1z M21,4h1v1h-1z M22,4h1v1h-1z M23,4h1v1h-1z M24,4h1v1h-1z M26,4h1v1h-1z M27,4h1v1h-1z M28,4h1v1h-1z M29,4h1v1h-1z M30,4h1v1h-1z M31,4h1v1h-1z M32,4h1v1h-1z M4,5h1v1h-1z M10,5h1v1h-1z M13,5h1v1h-1z M17,5h1v1h-1z M19,5h1v1h-1z M20,5h1v1h-1z M24,5h1v1h-1z M26,5h1v1h-1z M32,5h1v1h-1z M4,6h1v1h-1z M6,6h1v1h-1z M7,6h1v1h-1z M8,6h1v1h-1z M10,6h1v1h-1z M12,6h1v1h-1z M14,6h1v1h-1z M16,6h1v1h-1z M24,6h1v1h-1z M26,6h1v1h-1z M28,6h1v1h-1z M29,6h1v1h-1z M30,6h1v1h-1z M32,6h1v1h-1z M4,7h1v1h-1z M6,7h1v1h-1z M7,7h1v1h-1z M8,7h1v1h-1z M10,7h1v1h-1z M13,7h1v1h-1z M20,7h1v1h-1z M21,7h1v1h-1z M24,7h1v1h-1z M26,7h1v1h-1z M28,7h1v1h-1z M29,7h1v1h-1z M30,7h1v1h-1z M32,7h1v1h-1z M4,8h1v1h-1z M6,8h1v1h-1z M7,8h1v1h-1z M8,8h1v1h-1z M10,8h1v1h-1z M12,8h1v1h-1z M14,8h1v1h-1z M15,8h1v1h-1z M16,8h1v1h-1z M18,8h1v1h-1z M21,8h1v1h-1z M22,8h1v1h-1z M23,8h1v1h-1z M24,8h1v1h-1z M26,8h1v1h-1z M28,8h1v1h-1z M29,8h1v1h-1z M30,8h1v1h-1z M32,8h1v1h-1z M4,9h1v1h-1z M10,9h1v1h-1z M13,9h1v1h-1z M17,9h1v1h-1z M18,9h1v1h-1z M21,9h1v1h-1z M26,9h1v1h-1z M32,9h1v1h-1z M4,10h1v1h-1z M5,10h1v1h-1z M6,10h1v1h-1z M7,10h1v1h-1z M8,10h1v1h-1z M9,10h1v1h-1z M10,10h1v1h-1z M12,10h1v1h-1z M14,10h1v1h-1z M16,10h1v1h-1z M18,10h1v1h-1z M20,10h1v1h-1z M22,10h1v1h-1z M24,10h1v1h-1z M26,10h1v1h-1z M27,10h1v1h-1z M28,10h1v1h-1z M29,10h1v1h-1z M30,10h1v1h-1z M31,10h1v1h-1z M32,10h1v1h-1z M12,11h1v1h-1z M13,11h1v1h-1z M14,11h1v1h-1z M16,11h1v1h-1z M17,11h1v1h-1z M21,11h1v1h-1z M22,11h1v1h-1z M23,11h1v1h-1z M9,12h1v1h-1z M10,12h1v1h-1z M15,12h1v1h-1z M16,12h1v1h-1z M17,12h1v1h-1z M18,12h1v1h-1z M26,12h1v1h-1z M28,12h1v1h-1z M30,12h1v1h-1z M32,12h1v1h-1z M4,13h1v1h-1z M5,13h1v1h-1z M6,13h1v1h-1z M7,13h1v1h-1z M8,13h1v1h-1z M11,13h1v1h-1z M13,13h1v1h-1z M14,13h1v1h-1z M15,13h1v1h-1z M16,13h1v1h-1z M19,13h1v1h-1z M21,13h1v1h-1z M22,13h1v1h-1z M23,13h1v1h-1z M25,13h1v1h-1z M27,13h1v1h-1z M28,13h1v1h-1z M31,13h1v1h-1z M8,14h1v1h-1z M9,14h1v1h-1z M10,14h1v1h-1z M12,14h1v1h-1z M14,14h1v1h-1z M16,14h1v1h-1z M18,14h1v1h-1z M24,14h1v1h-1z M25,14h1v1h-1z M26,14h1v1h-1z M30,14h1v1h-1z M4,15h1v1h-1z M7,15h1v1h-1z M8,15h1v1h-1z M9,15h1v1h-1z M15,15h1v1h-1z M16,15h1v1h-1z M20,15h1v1h-1z M21,15h1v1h-1z M23,15h1v1h-1z M26,15h1v1h-1z M27,15h1v1h-1z M29,15h1v1h-1z M4,16h1v1h-1z M6,16h1v1h-1z M7,16h1v1h-1z M9,16h1v1h-1z M10,16h1v1h-1z M11,16h1v1h-1z M12,16h1v1h-1z M13,16h1v1h-1z M14,16h1v1h-1z M15,16h1v1h-1z M17,16h1v1h-1z M19,16h1v1h-1z M22,16h1v1h-1z M23,16h1v1h-1z M25,16h1v1h-1z M26,16h1v1h-1z M29,16h1v1h-1z M31,16h1v1h-1z M5,17h1v1h-1z M8,17h1v1h-1z M9,17h1v1h-1z M13,17h1v1h-1z M14,17h1v1h-1z M16,17h1v1h-1z M17,17h1v1h-1z M18,17h1v1h-1z M20,17h1v1h-1z M21,17h1v1h-1z M23,17h1v1h-1z M24,17h1v1h-1z M26,17h1v1h-1z M28,17h1v1h-1z M29,17h1v1h-1z M32,17h1v1h-1z M4,18h1v1h-1z M6,18h1v1h-1z M7,18h1v1h-1z M10,18h1v1h-1z M11,18h1v1h-1z M13,18h1v1h-1z M19,18h1v1h-1z M21,18h1v1h-1z M25,18h1v1h-1z M27,18h1v1h-1z M5,19h1v1h-1z M9,19h1v1h-1z M11,19h1v1h-1z M13,19h1v1h-1z M16,19h1v1h-1z M23,19h1v1h-1z M24,19h1v1h-1z M25,19h1v1h-1z M28,19h1v1h-1z M29,19h1v1h-1z M30,19h1v1h-1z M32,19h1v1h-1z M8,20h1v1h-1z M10,20h1v1h-1z M11,20h1v1h-1z M14,20h1v1h-1z M15,20h1v1h-1z M16,20h1v1h-1z M17,20h1v1h-1z M18,20h1v1h-1z M20,20h1v1h-1z M21,20h1v1h-1z M22,20h1v1h-1z M29,20h1v1h-1z M30,20h1v1h-1z M4,21h1v1h-1z M5,21h1v1h-1z M6,21h1v1h-1z M11,21h1v1h-1z M12,21h1v1h-1z M15,21h1v1h-1z M18,21h1v1h-1z M19,21h1v1h-1z M23,21h1v1h-1z M24,21h1v1h-1z M25,21h1v1h-1z M26,21h1v1h-1z M28,21h1v1h-1z M29,21h1v1h-1z M30,21h1v1h-1z M32,21h1v1h-1z M4,22h1v1h-1z M5,22h1v1h-1z M6,22h1v1h-1z M10,22h1v1h-1z M14,22h1v1h-1z M15,22h1v1h-1z M16,22h1v1h-1z M18,22h1v1h-1z M19,22h1v1h-1z M20,22h1v1h-1z M21,22h1v1h-1z M22,22h1v1h-1z M23,22h1v1h-1z M32,22h1v1h-1z M4,23h1v1h-1z M6,23h1v1h-1z M7,23h1v1h-1z M11,23h1v1h-1z M12,23h1v1h-1z M14,23h1v1h-1z M15,23h1v1h-1z M18,23h1v1h-1z M22,23h1v1h-1z M25,23h1v1h-1z M26,23h1v1h-1z M27,23h1v1h-1z M28,23h1v1h-1z M29,23h1v1h-1z M31,23h1v1h-1z M32,23h1v1h-1z M4,24h1v1h-1z M8,24h1v1h-1z M9,24h1v1h-1z M10,24h1v1h-1z M11,24h1v1h-1z M13,24h1v1h-1z M15,24h1v1h-1z M16,24h1v1h-1z M19,24h1v1h-1z M21,24h1v1h-1z M24,24h1v1h-1z M25,24h1v1h-1z M26,24h1v1h-1z M27,24h1v1h-1z M28,24h1v1h-1z M30,24h1v1h-1z M12,25h1v1h-1z M15,25h1v1h-1z M17,25h1v1h-1z M18,25h1v1h-1z M20,25h1v1h-1z M24,25h1v1h-1z M28,25h1v1h-1z M29,25h1v1h-1z M30,25h1v1h-1z M31,25h1v1h-1z M4,26h1v1h-1z M5,26h1v1h-1z M6,26h1v1h-1z M7,26h1v1h-1z M8,26h1v1h-1z M9,26h1v1h-1z M10,26h1v1h-1z M15,26h1v1h-1z M16,26h1v1h-1z M19,26h1v1h-1z M20,26h1v1h-1z M22,26h1v1h-1z M23,26h1v1h-1z M24,26h1v1h-1z M26,26h1v1h-1z M28,26h1v1h-1z M4,27h1v1h-1z M10,27h1v1h-1z M12,27h1v1h-1z M18,27h1v1h-1z M19,27h1v1h-1z M21,27h1v1h-1z M22,27h1v1h-1z M23,27h1v1h-1z M24,27h1v1h-1z M28,27h1v1h-1z M29,27h1v1h-1z M32,27h1v1h-1z M4,28h1v1h-1z M6,28h1v1h-1z M7,28h1v1h-1z M8,28h1v1h-1z M10,28h1v1h-1z M13,28h1v1h-1z M16,28h1v1h-1z M17,28h1v1h-1z M19,28h1v1h-1z M21,28h1v1h-1z M23,28h1v1h-1z M24,28h1v1h-1z M25,28h1v1h-1z M26,28h1v1h-1z M27,28h1v1h-1z M28,28h1v1h-1z M4,29h1v1h-1z M6,29h1v1h-1z M7,29h1v1h-1z M8,29h1v1h-1z M10,29h1v1h-1z M13,29h1v1h-1z M14,29h1v1h-1z M15,29h1v1h-1z M16,29h1v1h-1z M18,29h1v1h-1z M19,29h1v1h-1z M20,29h1v1h-1z M22,29h1v1h-1z M23,29h1v1h-1z M24,29h1v1h-1z M27,29h1v1h-1z M29,29h1v1h-1z M30,29h1v1h-1z M31,29h1v1h-1z M4,30h1v1h-1z M6,30h1v1h-1z M7,30h1v1h-1z M8,30h1v1h-1z M10,30h1v1h-1z M13,30h1v1h-1z M16,30h1v1h-1z M19,30h1v1h-1z M20,30h1v1h-1z M23,30h1v1h-1z M24,30h1v1h-1z M25,30h1v1h-1z M26,30h1v1h-1z M27,30h1v1h-1z M28,30h1v1h-1z M30,30h1v1h-1z M31,30h1v1h-1z M4,31h1v1h-1z M10,31h1v1h-1z M15,31h1v1h-1z M16,31h1v1h-1z M18,31h1v1h-1z M19,31h1v1h-1z M22,31h1v1h-1z M26,31h1v1h-1z M28,31h1v1h-1z M29,31h1v1h-1z M30,31h1v1h-1z M32,31h1v1h-1z M4,32h1v1h-1z M5,32h1v1h-1z M6,32h1v1h-1z M7,32h1v1h-1z M8,32h1v1h-1z M9,32h1v1h-1z M10,32h1v1h-1z M14,32h1v1h-1z M18,32h1v1h-1z M20,32h1v1h-1z M21,32h1v1h-1z M23,32h1v1h-1z M25,32h1v1h-1z M28,32h1v1h-1z M30,32h1v1h-1z" fill="#000000"/>
</svg>
